<?xml version="1.0" encoding="utf-8"?>
<svg version="1.1" xmlns="http://www.w3.org/2000/svg" viewBox="0 0 595.3 595.3" width="595.3" height="595.3">
<style type="text/css">
	.st0{display:none;}
	.st1{display:inline;fill:none;}
	.st2{display:inline;fill:url(#SVGID_1_);}
	.st3{display:inline;fill:url(#SVGID_2_);}
	.st4{fill:url(#SVGID_3_);}
</style>
<g class="st0">
	<path class="st1" d="M310.1,191.8c-3.8-1.6-8-2.7-12.7-3.1c-4.7-0.4-10.5-0.6-17.4-0.6h-20.4v65.3H277c8.5,0,15.7-0.5,21.6-1.5
		c5.9-1,10.9-3.2,15.1-6.6c3.9-3,6.8-6.7,8.7-10.9c1.9-4.2,2.9-9.8,2.9-16.6c0-6.1-1.2-11.3-3.5-15.7
		C319.4,197.6,315.5,194.2,310.1,191.8z"/>
	<path class="st1" d="M297.6,79.8C191.8,79.8,106,165.6,106,271.5c0,105.9,85.8,191.7,191.7,191.7c105.9,0,191.7-85.8,191.7-191.7
		C489.3,165.6,403.5,79.8,297.6,79.8z M349,386l-67.6-89h-21.8v89H199V143.4h97.6c13.5,0,25.2,0.8,35.2,2.5
		c10,1.7,19.2,5.2,27.7,10.5c8.7,5.5,15.6,12.6,20.7,21.1c5.1,8.5,7.7,19.4,7.7,32.5c0,18.6-4.2,33.6-12.5,45.2
		c-8.4,11.6-19.6,20.8-33.6,27.6L423.3,386H349z"/>
	<linearGradient id="SVGID_1_" gradientUnits="userSpaceOnUse" x1="295.8618" y1="71.1334" x2="298.8618" y2="409.1334">
		<stop  offset="0" style="stop-color:#FFD500"/>
		<stop  offset="1" style="stop-color:#ED5424"/>
		<stop  offset="1" style="stop-color:#000000"/>
	</linearGradient>
	<path class="st2" d="M297.6,35C167.1,35,61.2,140.9,61.2,271.5c0,130.6,105.9,236.4,236.4,236.4c130.6,0,236.4-105.9,236.4-236.4
		C534.1,140.9,428.2,35,297.6,35z M297.6,463.2c-105.9,0-191.7-85.8-191.7-191.7c0-105.9,85.8-191.7,191.7-191.7
		c105.9,0,191.7,85.8,191.7,191.7C489.3,377.3,403.5,463.2,297.6,463.2z"/>
	<linearGradient id="SVGID_2_" gradientUnits="userSpaceOnUse" x1="308.3635" y1="71.0224" x2="311.3635" y2="409.0224">
		<stop  offset="0" style="stop-color:#FFCD00"/>
		<stop  offset="1" style="stop-color:#ED5424"/>
		<stop  offset="1" style="stop-color:#000000"/>
	</linearGradient>
	<path class="st3" d="M375.3,255.2c8.4-11.6,12.5-26.6,12.5-45.2c0-13.1-2.6-24-7.7-32.5c-5.1-8.5-12-15.6-20.7-21.1
		c-8.5-5.3-17.7-8.8-27.7-10.5c-10-1.7-21.7-2.5-35.2-2.5H199V386h60.6v-89h21.8l67.6,89h74.3l-81.6-103.1
		C355.7,276,366.9,266.8,375.3,255.2z M322.4,234.3c-1.9,4.2-4.8,7.9-8.7,10.9c-4.1,3.4-9.2,5.6-15.1,6.6c-5.9,1-13.1,1.5-21.6,1.5
		h-17.4V188H280c7,0,12.8,0.2,17.4,0.6c4.7,0.4,8.9,1.5,12.7,3.1c5.4,2.4,9.3,5.8,11.7,10.2c2.3,4.4,3.5,9.6,3.5,15.7
		C325.3,224.5,324.3,230.1,322.4,234.3z"/>
</g>
<linearGradient id="SVGID_3_" gradientUnits="userSpaceOnUse" x1="296.2437" y1="94.6571" x2="299.8568" y2="501.726">
	<stop  offset="0" style="stop-color:#FFD500"/>
	<stop  offset="1" style="stop-color:#ED5424"/>
	<stop  offset="1" style="stop-color:#000000"/>
</linearGradient>
<path class="st4" d="M510.5,252c0,3.8-2.2,7.8-6.7,12.3L411,354.8l22,127.9c0.2,1.2,0.3,2.9,0.3,5.1c0,3.6-0.9,6.6-2.7,9.1
	c-1.8,2.5-4.4,3.7-7.8,3.7c-3.2,0-6.7-1-10.2-3.1l-114.9-60.4l-114.9,60.4c-3.8,2-7.2,3.1-10.2,3.1c-3.6,0-6.3-1.2-8.1-3.7
	s-2.7-5.5-2.7-9.1c0-1,0.2-2.7,0.5-5.1l22-127.9l-93.1-90.6c-4.3-4.6-6.4-8.7-6.4-12.3c0-6.3,4.8-10.2,14.3-11.8l128.4-18.7
	l57.6-116.4c3.2-7,7.4-10.5,12.5-10.5c5.1,0,9.3,3.5,12.5,10.5l57.6,116.4l128.4,18.7C505.7,241.7,510.5,245.7,510.5,252z"/>
</svg>
